/* XPM */
static char *result[] = {
/* columns rows colors chars-per-pixel */
"64 64 170 2 ",
"   c #7D766F",
".  c #747D79",
"X  c #787A76",
"o  c #AE5E5E",
"O  c #A6575E",
"+  c #9F644D",
"@  c #9D684F",
"#  c #9D6D53",
"$  c #9C6552",
"%  c #887C5B",
"&  c #917A59",
"*  c #917758",
"=  c #A1654D",
"-  c #A5694F",
";  c #AD6A4F",
":  c #B36C4E",
">  c #BC6C4A",
",  c #A06250",
"<  c #AB6457",
"1  c #A66B50",
"2  c #A96C52",
"3  c #A36D5A",
"4  c #AA6F5D",
"5  c #B66D50",
"6  c #BA6F50",
"7  c #AC7256",
"8  c #AC725C",
"9  c #A4765A",
"0  c #B57354",
"q  c #BD7551",
"w  c #BE7954",
"e  c #B3765B",
"r  c #BA775E",
"t  c #B3795D",
"y  c #BC7C59",
"u  c #B57857",
"i  c #9E5C65",
"p  c #B04E6E",
"a  c #AA5565",
"s  c #A85B61",
"d  c #A95169",
"f  c #A6526A",
"g  c #BC5F64",
"h  c #BE536C",
"j  c #BC5A69",
"k  c #AF4C72",
"l  c #B04D73",
"z  c #AA5373",
"x  c #966965",
"c  c #92726D",
"v  c #976073",
"b  c #9B7C7C",
"n  c #A97165",
"m  c #AC7B66",
"M  c #AA7A65",
"N  c #BE7960",
"B  c #B37F68",
"V  c #C27B54",
"C  c #CA7D54",
"Z  c #C0795E",
"A  c #C6556D",
"S  c #CB566E",
"D  c #C35969",
"F  c #C05F65",
"G  c #CC4F77",
"H  c #D64F78",
"J  c #CB5076",
"K  c #CC5378",
"L  c #D35177",
"P  c #D55178",
"I  c #D85278",
"U  c #5D9E72",
"Y  c #7F8460",
"T  c #758C66",
"R  c #7B8862",
"E  c #6C966C",
"W  c #639D70",
"Q  c #4FAF7B",
"!  c #57A676",
"~  c #51AC7A",
"^  c #58A678",
"/  c #4DB17C",
"(  c #818360",
")  c #AF8460",
"_  c #B68067",
"`  c #B5826B",
"'  c #B9886F",
"]  c #B98870",
"[  c #C88156",
"{  c #C5835D",
"}  c #D28456",
"|  c #D38658",
" . c #D48A5C",
".. c #C58461",
"X. c #CC8C64",
"o. c #D08D65",
"O. c #D69468",
"+. c #DC9B6D",
"@. c #D89267",
"#. c #C2967F",
"$. c #DE9C70",
"%. c #E29F6E",
"&. c #E5A06F",
"*. c #E6A271",
"=. c #E8A472",
"-. c #E9AC77",
";. c #EBAD79",
":. c #EDB07C",
">. c #66769A",
",. c #6177A1",
"<. c #837A83",
"1. c #827F95",
"2. c #6D82A9",
"3. c #6C92BC",
"4. c #4F86C5",
"5. c #5086C4",
"6. c #5694CD",
"7. c #4E9BDC",
"8. c #5197D6",
"9. c #509ADA",
"0. c #8E838E",
"q. c #918C8C",
"w. c #968486",
"e. c #909091",
"r. c #BA9A8A",
"t. c #B99786",
"y. c #A59891",
"u. c #A7A19E",
"i. c #BBA294",
"p. c #BEA79A",
"a. c #BEA89B",
"s. c #B0A29A",
"d. c #828BA2",
"f. c #A9A7A5",
"g. c #A9A8A5",
"h. c #B3ADA8",
"j. c #B5B3AF",
"k. c #B6B4B0",
"l. c #C19983",
"z. c #C59F8B",
"x. c #CCA792",
"c. c #CCAA95",
"v. c #C3AA9C",
"b. c #CFB19E",
"n. c #D0B29F",
"m. c #CBBAAE",
"M. c #C4B0A2",
"N. c #D5B8A5",
"B. c #D6BDAC",
"V. c #D8BDAA",
"C. c #D8C0AF",
"Z. c #DBC6B5",
"A. c #D5C9BD",
"S. c #DDCABA",
"D. c #D6C5B7",
"F. c #D3CEC6",
"G. c #D5D3CB",
"H. c #D8D3CA",
"J. c #DED9CE",
"K. c #E3D5C5",
"L. c #E3DBCE",
"P. c #EADDCD",
"I. c #E5DDD0",
"U. c #E9DFD0",
"Y. c #EDE0CF",
"T. c #ECE2D4",
"R. c #F1E6D6",
"E. c #F2E7D8",
"W. c #F3E9D9",
"Q. c None",
/* pixels */
"Q.Q.Q.Q.Q.Q.Q.Q.Q.Q.Q.Q.Q.Q.Q.Q.Q.Q.Q.Q.Q.Q.Q.Q.Q.Q.Q.Q.Q.Q.Q.Q.Q.Q.Q.Q.Q.Q.Q.Q.Q.Q.Q.Q.Q.Q.Q.Q.Q.Q.Q.Q.Q.Q.Q.Q.Q.Q.Q.Q.Q.Q.Q.Q.",
"Q.Q.Q.Q.Q.Q.Q.Q.Q.Q.Q.Q.Q.Q.Q.Q.Q.Q.Q.Q.Q.Q.Q.Q.Q.Q.Q.Q.Q.Q.Q.Q.Q.Q.Q.Q.Q.Q.Q.Q.Q.Q.Q.Q.Q.Q.Q.Q.Q.Q.Q.Q.Q.Q.Q.Q.Q.Q.Q.Q.Q.Q.Q.Q.",
"Q.Q.Q.Q.Q.Q.Q.Q.Q.Q.Q.Q.Q.Q.Q.Q.Q.Q.Q.Q.Q.Q.Q.Q.Q.Q.Q.1 ..X.X.X.{ Q.Q.Q.Q.Q.Q.Q.Q.Q.Q.Q.Q.Q.Q.Q.Q.Q.Q.Q.Q.Q.Q.Q.Q.Q.Q.Q.Q.Q.Q.Q.",
"Q.Q.Q.Q.Q.Q.Q.Q.Q.Q.Q.Q.Q.Q.Q.Q.Q.Q.Q.Q.Q.Q.Q.Q.Q.Q.1 X.*.*.*.=.*.X.Q.Q.Q.Q.Q.Q.Q.Q.Q.Q.Q.Q.Q.Q.Q.Q.Q.Q.Q.Q.Q.Q.Q.Q.Q.Q.Q.Q.Q.Q.",
"Q.Q.Q.Q.Q.Q.Q.Q.Q.Q.Q.Q.Q.Q.Q.Q.Q.Q.Q.Q.Q.Q.Q.Q.Q.Q.X.*.=.=.=.=.=.&...Q.Q.Q.Q.Q.Q.Q.Q.Q.Q.Q.Q.Q.Q.Q.Q.Q.Q.Q.Q.Q.Q.Q.Q.Q.Q.Q.Q.Q.",
"Q.Q.Q.Q.Q.Q.Q.Q.Q.Q.Q.Q.Q.Q.Q.Q.Q.Q.Q.Q.Q.Q.Q.Q.Q.X.*.*.X.X...X.o.*.*...Q.Q.Q.Q.Q.Q.Q.Q.Q.Q.Q.Q.Q.Q.Q.Q.Q.Q.Q.Q.Q.Q.Q.Q.Q.Q.Q.Q.",
"Q.Q.Q.Q.Q.Q.Q.Q.Q.Q.Q.Q.Q.Q.Q.Q.Q.Q.Q.Q.Q.Q.Q.1 o.*.*...w X.X.{ w o.=.*...Q.Q.Q.Q.Q.Q.Q.Q.Q.Q.Q.Q.Q.Q.Q.Q.Q.Q.Q.Q.Q.Q.Q.Q.Q.Q.Q.",
"Q.Q.Q.Q.Q.Q.Q.Q.Q.Q.Q.Q.Q.Q.Q.Q.Q.Q.Q.Q.Q.Q.1 X.*.*...-  .*.*.&.[ 1 X.*.&...Q.Q.Q.Q.Q.Q.Q.Q.Q.Q.Q.Q.Q.Q.Q.Q.Q.Q.Q.Q.Q.Q.Q.Q.Q.Q.",
"Q.Q.Q.Q.Q.Q.Q.Q.Q.Q.Q.Q.Q.Q.Q.Q.Q.Q.Q.Q.Q.Q.X.*.*...j <  .&.*.&.[ s g X.=.*...Q.Q.Q.Q.Q.Q.Q.Q.Q.Q.Q.Q.Q.Q.Q.Q.Q.Q.Q.Q.Q.Q.Q.Q.Q.",
"Q.Q.Q.Q.Q.Q.Q.Q.Q.Q.Q.Q.Q.Q.Q.Q.Q.Q.Q.Q.Q.X.*.*...j K <  .*.*.&.[ < P g X.=.*...Q.Q.Q.Q.Q.Q.Q.Q.Q.Q.Q.Q.Q.Q.Q.Q.Q.Q.Q.Q.Q.Q.Q.Q.",
"Q.Q.Q.Q.Q.Q.Q.Q.Q.Q.Q.Q.Q.Q.Q.Q.Q.Q.Q.2 X.*.*...A I K <  .*.*.&.[ o K I g X.*.*...Q.Q.Q.Q.Q.Q.Q.Q.Q.Q.Q.Q.Q.Q.Q.Q.Q.Q.Q.Q.Q.Q.Q.",
"Q.Q.Q.Q.Q.Q.Q.Q.Q.Q.Q.Q.Q.Q.Q.Q.Q.Q.1 X.=.*...a L I J <  .*.*.&.[ s K I J s X.=.*...Q.Q.Q.Q.Q.Q.Q.Q.Q.Q.Q.Q.Q.Q.Q.Q.Q.Q.Q.Q.Q.Q.",
"Q.Q.Q.Q.Q.Q.Q.Q.Q.Q.Q.Q.Q.Q.Q.Q.Q.Q.X.*.*...j k L I J <  .*.*.&.[ o P I K k g X.*.*...Q.Q.Q.Q.Q.Q.Q.Q.Q.Q.Q.Q.Q.Q.Q.Q.Q.Q.Q.Q.Q.",
"Q.Q.Q.Q.Q.Q.Q.Q.Q.Q.Q.Q.Q.Q.Q.Q.Q.X.*.*...D K k L I K <  .*.*.%.[ o K I K l L F X.*.*...Q.Q.Q.Q.Q.Q.Q.Q.Q.Q.Q.Q.Q.Q.Q.Q.Q.Q.Q.Q.",
"Q.Q.Q.Q.Q.Q.Q.Q.Q.Q.Q.Q.Q.Q.Q.1 X.*.*...D I K k P P K <  .*.*.&.[ < I I G l K I F X.*.*...Q.Q.Q.Q.Q.Q.Q.Q.Q.Q.Q.Q.Q.Q.Q.Q.Q.Q.Q.",
"Q.Q.Q.Q.Q.Q.Q.Q.Q.Q.Q.Q.Q.Q.1 X.*.*...a L I K l K P K <  .*.*.%.[ s P I G k K I K s X.=.*.{ Q.Q.Q.Q.Q.Q.Q.Q.Q.Q.Q.Q.Q.Q.Q.Q.Q.Q.",
"Q.Q.Q.Q.Q.Q.Q.Q.Q.Q.Q.Q.Q.Q.X.*.*...j k L I K k L I K <  .*.*.*.[ o K I J l K I K l g o.*.*...Q.Q.Q.Q.Q.Q.Q.Q.Q.Q.Q.Q.Q.Q.Q.Q.Q.",
"Q.Q.Q.Q.Q.Q.Q.Q.Q.Q.Q.Q.Q.X.*.*...D K k L I K k K I K <  .*.*.*.[ o K I J p L I K l K g X.=.*.{ Q.Q.Q.Q.Q.Q.Q.Q.Q.Q.Q.Q.Q.Q.Q.Q.",
"Q.Q.Q.Q.Q.Q.Q.Q.Q.Q.Q.1 X.*.*...D I J k K I K k L I K <  .*.*.+.[ o P I J l K I G p K I F X.*.&...Q.Q.Q.Q.Q.Q.Q.Q.Q.Q.Q.Q.Q.Q.Q.",
"Q.Q.Q.Q.Q.Q.Q.Q.Q.Q.Q.1 &.*...a I I J k L P K k L P K <  .*.*.*.[ o K I J l L I G l L I K s X.=.O.= Q.Q.Q.Q.Q.Q.Q.Q.Q.Q.Q.Q.Q.Q.",
"Q.Q.Q.Q.Q.Q.Q.Q.Q.Q.Q.1 +...j k L P K k L I K k L I J <  .*.*.&.[ o P P K k K I K l K I G k g o.O.- Q.Q.Q.Q.Q.Q.Q.Q.Q.Q.Q.Q.Q.Q.",
"Q.Q.Q.Q.Q.Q.Q.Q.Q.Q.Q.1 Z D K k L P K k L I K k L I K <  .*.*.&.[ o K I K l K I G k K I K l K g y @ Q.Q.Q.Q.Q.Q.Q.Q.Q.Q.Q.Q.Q.Q.",
"Q.Q.Q.Q.Q.Q.Q.Q.Q.Q.Q.= a I K k L I K k K I K k L I K <  .*.*.*.{ o P P G k K I K p L I K l K I O = Q.Q.Q.Q.Q.Q.Q.Q.Q.Q.Q.Q.Q.Q.",
"Q.Q.Q.Q.Q.Q.Q.Q.Q.Q.Q., p I K l L I K k L I K k K L K <  .*.*.*.[ o K I K l L I K p K I K l K L d = Q.Q.Q.Q.Q.Q.Q.Q.Q.Q.Q.Q.Q.Q.",
"Q.Q.Q.Q.Q.Q.Q.Q.Q.Q.Q., l I K k L I K l L I K k L I K < [ O.O.O.V o K I J l K I J l K I K l K I f = Q.Q.Q.Q.Q.Q.Q.Q.Q.Q.Q.Q.Q.Q.",
"Q.Q.Q.Q.Q.Q.Q.Q.Q.Q.Q., d I K k L P K k L I K k L I K < y y y N y s L I J l P I J l L P J l K L d = Q.Q.Q.Q.Q.Q.Q.Q.Q.Q.Q.Q.Q.Q.",
"Q.Q.Q.Q.Q.Q.Q.Q.Q.Q.Q., l I K k P P K k L I J l I I j _ *.=.=.=.&.r A I K l K I K l L I J p P P d + Q.Q.Q.Q.Q.Q.Q.Q.Q.Q.Q.Q.Q.Q.",
"Q.Q.Q.Q.Q.Q.Q.Q.Q.Q.Q., d L K k L P K k L I J l P D ..&.*.*.*.&.*.%.Z S K l K I K l K I J l K P d = Q.Q.Q.Q.Q.Q.Q.Q.Q.Q.Q.Q.Q.Q.",
"Q.Q.Q.Q.Q.Q.Q.Q.Q.Q.Q., p I K k L I K k L P K k D { *.*.-.;.;.;.;.*.%.N h l P I G p K I K l K I d + Q.Q.Q.Q.Q.Q.Q.Q.Q.Q.Q.Q.Q.Q.",
"Q.Q.Q.Q.Q.Q.Q.Q.Q.Q.Q., p I K k L I K k P P K a ..*.*.:.;.:.;.-.;.;.*.%.r d P I K l K I G l K L d + Q.Q.Q.Q.Q.Q.Q.Q.Q.Q.Q.Q.Q.Q.",
"Q.Q.Q.Q.Q.Q.Q.Q.Q.Q.Q., p I K k L I K p L I j ..*.*.:.*. .| | }  .;.;.*.*.N A P G l K I G l L L f = Q.Q.Q.Q.Q.Q.Q.Q.Q.Q.Q.Q.Q.Q.",
"Q.Q.Q.Q.Q.Q.Q.Q.Q.Q.Q., p I K k L P K k L D ..*.*.;.*. .[ | | | }  .-.;.*.*.N S K l L P K l K L d = Q.Q.Q.Q.Q.Q.Q.Q.Q.Q.Q.Q.Q.Q.",
"Q.Q.Q.Q.Q.Q.Q.Q.Q.Q.Q., d P K k L I J k j ..*.*.:.=.| | | | | | | |  .;.;.&.%.N h l L I K l P P f + Q.Q.Q.Q.Q.Q.Q.Q.Q.Q.Q.Q.Q.Q.",
"Q.Q.Q.Q.Q.Q.Q.Q.Q.Q.Q., p P K k L I K a ..*.*.:.=.| | | V w w w V | |  .;.;.&.%.r p K I K l K L d + Q.Q.Q.Q.Q.Q.Q.Q.Q.Q.Q.Q.Q.Q.",
"Q.Q.Q.Q.Q.Q.Q.Q.Q.Q.Q., p I K k L I j ..*.*.:.*. .| [ y r.i.s.i.t.V | |  .;.;.*.%.N A I G l K L d = Q.Q.Q.Q.Q.Q.Q.Q.Q.Q.Q.Q.Q.Q.",
"Q.Q.Q.Q.Q.Q.Q.Q.Q.Q.Q.$ p I K k L D ..*.*.;.*.| | | y p.G.G.G.G.F.t.V | }  .;.;.*.%.Z S G l L L d @ Q.Q.Q.Q.Q.Q.Q.Q.Q.Q.Q.Q.Q.Q.",
"Q.Q.Q.Q.Q.Q.Q.Q.Q.Q.Q.$ l I K k j ..*.*.:.=. .| [ w p.G.U.Z.S.S.U.F.r.V | | | ;.;.=.%.Z A l J H f T Q.Q.Q.Q.Q.Q.Q.Q.Q.Q.Q.Q.Q.Q.",
"Q.Q.Q.Q.Q.Q.Q.Q.Q.Q.~ T p I K a ..*.*.;.=.| | | y v.H.T.c.5 5 5 V.T.F.r.V | |  .-.;.*.%.r d L H v Q Q.Q.Q.Q.Q.Q.Q.Q.Q.Q.Q.Q.Q.Q.",
"Q.Q.Q.Q.Q.Q.Q.Q.Q.Q.Q ~ z I j X.=.=.x.=.| | [ y a.G.T.x.5 2 : : e N.T.F.r.V | |  .-.;.*.%.r A H v ~ Q.Q.Q.Q.Q.Q.Q.Q.Q.Q.Q.Q.Q.Q.",
"Q.Q.Q.Q.Q.Q.Q.Q.Q.Q.~ ^ z D { &.=.:.=.| | | y a.G.E.c.> # ,.,.>.< 6 B.T.F.r.V | |  .-.;.*.&.Z A v Q Q.Q.Q.Q.Q.Q.Q.Q.Q.Q.Q.Q.Q.Q.",
"Q.Q.Q.Q.Q.Q.Q.Q.Q.Q./ ^ i X.&.&.:.=.| | } y p.H.T.E.l.> c 8.8.6.3 : n.W.T.F.t.w | |  .:.;.*.%.Z x / Q.Q.Q.Q.Q.Q.Q.Q.Q.Q.Q.Q.Q.Q.",
"Q.Q.Q.Q.Q.Q.Q.Q.Q.Q.Q E _ *.=.:.=.| | | y p.H.Y.E.R.l.> c 8.8.6.3 : n.W.R.T.F.r.V | |  .;.;.*.%.) W Q.Q.Q.Q.Q.Q.Q.Q.Q.Q.Q.Q.Q.Q.",
"Q.Q.Q.Q.Q.Q.Q.Q.Q.Q.~ 9 &.*.:.&.| | | w p.H.T.R.E.E.B.e 8 <.>.b 5 B S.W.R.R.T.F.r.V | |  .;.;.=.@.Y Q.Q.Q.Q.Q.Q.Q.Q.Q.Q.Q.Q.Q.Q.",
"Q.Q.Q.Q.Q.Q.Q.Q.Q.Q.~ ( %.:.=.| | | V v.H.T.R.R.E.E.T.m.e > > > B A.E.E.R.R.R.T.F.r.V } |  .-.;.@.Y Q.Q.Q.Q.Q.Q.Q.Q.Q.Q.Q.Q.Q.Q.",
"Q.Q.Q.Q.Q.Q.Q.Q.Q.Q.Q & -.=.| | } y p.H.T.R.R.R.R.R.R.R.m.m m B A.T.R.R.R.R.R.R.T.F.r.w | |  .;.$.Y Q.Q.Q.Q.Q.Q.Q.Q.Q.Q.Q.Q.Q.Q.",
"Q.Q.Q.Q.Q.Q.Q.Q.Q.Q.Q & &.| | [ y p.H.T.R.R.R.R.R.R.R.R.E.J.J.L.E.E.R.R.R.R.R.R.T.T.F.t.V | |  .+.Y Q.Q.Q.Q.Q.Q.Q.Q.Q.Q.Q.Q.Q.Q.",
"Q.Q.Q.Q.Q.Q.Q.Q.Q.Q.Q & [ | | y p.H.Y.R.R.R.R.R.R.R.E.P.z.t.l.l.c.R.R.R.R.R.R.R.R.E.T.F.r.w  .| C Y Q.Q.Q.Q.Q.Q.Q.Q.Q.Q.Q.Q.Q.Q.",
"Q.Q.Q.Q.Q.Q.Q.Q.Q.Q.Q * } | | 7 F.Y.x._ _ x.R.W.E.E.c._ V V V V Z ` N.R.R.R.Y.#._ _ N.T.m.0 | | C Y Q.Q.Q.Q.Q.Q.Q.Q.Q.Q.Q.Q.Q.Q.",
"Q.Q.Q.Q.Q.Q.Q.Q.Q.Q.~ & [ | | t L.x.4 n n 4 c.R.R.x.C C w - - - V C y N.W.P.#.n n n n V.Z.0 | | C Y Q.Q.Q.Q.Q.Q.Q.Q.Q.Q.Q.Q.Q.Q.",
"Q.Q.Q.Q.Q.Q.Q.Q.Q.Q.Q & } | | e B.: 1.5.4.1.: Z.c.V C - = ; ; = ; 7 [ w V.n.: 2.5.5.b N C.w |  .C Y Q.Q.Q.Q.Q.Q.Q.Q.Q.Q.Q.Q.Q.Q.",
"Q.Q.Q.Q.Q.Q.Q.Q.Q.Q.~ & } | | m B.5 d.7.7.d.: B.e C - ; ; 5 5 : 6 ; 5 C ' b.> 3.9.7.w.N C.0 | | C Y Q.Q.Q.Q.Q.Q.Q.Q.Q.Q.Q.Q.Q.Q.",
"Q.Q.Q.Q.Q.Q.Q.Q.Q.Q.Q & C | | e B.5 d.7.7.d.: V.t w + 6 : 5 5 2 6 ; : V ' b.> 3.7.7.( 0 C.0 | | C Y Q.Q.Q.Q.Q.Q.Q.Q.Q.Q.Q.Q.Q.Q.",
"Q.Q.Q.Q.Q.Q.Q.Q.Q.Q.~ & } | } e Z.e <.3.3.0.e Z.e w + 6 ; > 5 : 6 ; : V ' N.e 2.3.3.b _ C.0 | | C Y Q.Q.Q.Q.Q.Q.Q.Q.Q.Q.Q.Q.Q.Q.",
"Q.Q.Q.Q.Q.Q.Q.Q.Q.Q.Q & } | | e L.m.N > : e m.L.e w + 6 ; : 5 ; 6 : : V ` T.v.5 : > ` A.Z.0 | | C Y Q.Q.Q.Q.Q.Q.Q.Q.Q.Q.Q.Q.Q.Q.",
"Q.Q.Q.Q.Q.Q.Q.Q.Q.Q.~ & [ | | e P.R.m.i.i.m.T.P.t w @ 6 ; : 5 ; 0 : : w ` E.U.M.i.i.A.E.S.0 | | C Y Q.Q.Q.Q.Q.Q.Q.Q.Q.Q.Q.Q.Q.Q.",
"Q.Q.Q.Q.Q.Q.Q.Q.Q.Q.~ * } | | e K.U.I.L.L.I.U.K.e w + 6 : 0 5 : 6 : : V ` U.I.I.L.I.I.U.Z.q | | C ( Q.Q.Q.Q.Q.Q.Q.Q.Q.Q.Q.Q.Q.Q.",
"Q.Q.Q.Q.Q.Q.Q.Q.Q.Q.~ & [ | | 7 f.f.f.f.f.f.f.u.7 w = 6 : 5 5 : 6 ; : V 9 g.g.g.f.f.f.g.y.0 | | C Y Q.Q.Q.Q.Q.Q.Q.Q.Q.Q.Q.Q.Q.Q.",
"Q.Q.Q.Q.Q.Q.Q.Q.Q.Q.Q & } | | 7 h.k.j.j.k.j.k.h.7 w = 6 ; 5 5 ; 6 : : V m k.k.k.k.k.k.k.s.0 | | C Y Q.Q.Q.Q.Q.Q.Q.Q.Q.Q.Q.Q.Q.Q.",
"Q.Q.Q.Q.Q.Q.Q.Q.Q.Q.~ & } | | 7 q.e.e.e.e.e.e.q.7 w + 6 ; 5 6 ; 6 : : V 9 e.e.e.e.e.e.e.w.0 | | C Y Q.Q.Q.Q.Q.Q.Q.Q.Q.Q.Q.Q.Q.Q.",
"Q.Q.Q.Q.Q.Q.Q.Q.Q.Q.Q & } | | 2 X . . . . . . X 2 w @ # # # # # # # @ V # . . . . . . .   0 | | C Y Q.Q.Q.Q.Q.Q.Q.Q.Q.Q.Q.Q.Q.Q.",
"Q.Q.Q.Q.Q.Q.Q.Q.Q.Q.Q ( V C C & ! ~ ~ ! ~ ~ ~ ! % * E ~ ! ! ! ! ! ~ T * Y ~ ~ ! ! ~ ~ ~ ^ 9 C C V T Q.Q.Q.Q.Q.Q.Q.Q.Q.Q.Q.Q.Q.Q.",
"Q.Q.Q.Q.Q.Q.Q.Q.Q.Q.Q.! Y Y ( ^ / Q.Q.Q.Q.Q.Q.Q.~ ~ ~ Q.Q.Q.Q.Q.Q.Q.~ ~ Q Q.Q.Q.Q.Q.Q.Q.~ W ( Y T Q Q.Q.Q.Q.Q.Q.Q.Q.Q.Q.Q.Q.Q.Q.",
"Q.Q.Q.Q.Q.Q.Q.Q.Q.Q.Q.Q.Q.Q.Q.Q.Q.Q.Q.Q.Q.Q.Q.Q.Q.Q.Q.Q.Q.Q.Q.Q.Q.Q.Q.Q.Q.Q.Q.Q.Q.Q.Q.Q.Q.Q.Q.Q.Q.Q.Q.Q.Q.Q.Q.Q.Q.Q.Q.Q.Q.Q.Q.Q.",
"Q.Q.Q.Q.Q.Q.Q.Q.Q.Q.Q.Q.Q.Q.Q.Q.Q.Q.Q.Q.Q.Q.Q.Q.Q.Q.Q.Q.Q.Q.Q.Q.Q.Q.Q.Q.Q.Q.Q.Q.Q.Q.Q.Q.Q.Q.Q.Q.Q.Q.Q.Q.Q.Q.Q.Q.Q.Q.Q.Q.Q.Q.Q.Q."
};
