/* XPM */
static char *result[] = {
/* columns rows colors chars-per-pixel */
"64 64 63 1 ",
"  c #1A0E19",
". c #1D121C",
"X c #20151F",
"o c #211620",
"O c #251B24",
"+ c #291E26",
"@ c #291F29",
"# c #2C2027",
"$ c #2D232C",
"% c #31262D",
"& c #33282F",
"* c #2E2730",
"= c #2F2832",
"- c #312631",
"; c #352B34",
": c #392F36",
"> c #372E38",
", c #382F39",
"< c #3C3136",
"1 c #37313A",
"2 c #3B333D",
"3 c #42373C",
"4 c #453A3F",
"5 c #4B3D3F",
"6 c #3E3641",
"7 c #3F3942",
"8 c #423B45",
"9 c #493E42",
"0 c #453F49",
"q c #4B4145",
"w c #47414A",
"e c #4A444E",
"r c #4F484F",
"t c #524343",
"y c #574947",
"u c #514649",
"i c #534A4E",
"p c #5C4D4B",
"a c #4C4650",
"s c #544B51",
"d c #594F52",
"f c #5D5253",
"g c #615555",
"h c #645857",
"j c #655958",
"k c #6A5D5B",
"l c #73635E",
"z c #756660",
"x c #7D6C65",
"c c #716B7E",
"v c #806F66",
"b c #817066",
"n c #827168",
"m c #837785",
"M c #847886",
"N c #93838C",
"B c #9A898F",
"V c #A29491",
"C c #A59992",
"Z c #AEA79E",
"A c #B3AEA3",
"S c #BAB9AD",
"D c None",
/* pixels */
"DDDDDDDDDDDDDDDDDDDDDDDDDDDDDDDDDDDDDDDDDDDDDDDDDDDDDDDDDDDDDDDD",
"DDDDDDDDDDDDDDDDDDDDDDDX+%pppppppppppppppppppppppy#++DDDDDDDDDDD",
"DDDDDDDDDDDDDDDDDDDDDD3tllvnnnnnnnnnnnnnnnnnnnnnnvlll5X.DDDDDDDD",
"DDDDDDDDDDDDDDDDDDD.$ukkkkkkxxxxxvxxvbbbvvvvvvvvvvvvvvh#DDDDDDDD",
"DDDDDDDDDDDDDDDDDD@3dgfffffffffgggghlzzzzxxvvnvvllggggh&DDDDDDDD",
"DDDDDDDDDDDDDDDDD 3fddassisifffffdfdfffffgkkllkjfgfffgf%DDDDDDDD",
"DDDDDDDDDDDDDDDDD@8saaaaeeeeaaeaaaesddddffdfggfdffffffg%DDDDDDDD",
"DDDDDDDDDDDDDDDD ,0a0a0aeeeeeeeeeeeeeeeesidffgffffffffg%DDDDDDDD",
"DDDDDDDDDDDDDDD.O600aaaaaaaa0a0aeeeeeeee0wasfffffffffff% DDDDDDD",
"DDDDDDDDDDDDDDD.8aaa0a0a00a0aaaaeeeeeeeeaaesdffffffffff9%oDDDDDD",
"DDDDDDDDDDDDDD.20aaaaaaaaaaaa0a0eeeeeeeeeeeedffffffffzxlg; DDDDD",
"DDDDDDDDDDDDD.;waa00a0a00a0aaaaaeeeeeeeeseesfffffffffxlkh: DDDDD",
"DDDDDDDDDDDDD@0eaa0aaaaaaaaaaa00eeeeeeedfeesfffffffffdedg: DDDDD",
"DDDDDDDDDDD.@wee0aaa00a0a0a0a0aaeeaweeadfisdffffffffgeedg< DDDDD",
"DDDDDDDDDDD#8weeaa0aaaaaaaa0aaa0eeeeeeeeaadgfffffffffaedg< DDDDD",
"DDDDDDDDDD@waeeessss0a0assaa0aaaeeeewaeeedfffffffffffeifq&DDDDDD",
"DDDDDDDDDDOeeeeeesfsaee0000a0a0aeeeeeeeedffffffffffffedg;DDDDDDD",
"DDDDDDDDDDOeeeeeeereeeea00aa0aaaeeeweeesdfffgfffffffeedf;DDDDDDD",
"DDDDDDDDDDo;>60w0aaaeae068a0a0aaeeeeeeefffdddfffffffaedg;DDDDDDD",
"DDDDDDDDDDo-----*,66666600a0aaa0eeeeeeefffieigffffffaadg;DDDDDDD",
"DDDDDDDDDDo-------*-;---,,,;600000waeedffseesfffffffaedf;DDDDDDD",
"DDDDDDDDDDo------->0e8--------;---;8ssdffsaedfffffffeedg;DDDDDDD",
"DDDDDDDDDo$-------7aa8;-------------3fffffdfffffffffaedg;DDDDDDD",
"DDDDDDDDDO6;-----8eeea0-------------;9ffffgfffffffffeedg:DDDDDDD",
"DDDDDDDD@8e07---60aaasu>--------------0fffffffffffffaedf&DDDDDDD",
"DDDDDDD@1aew2122000sdgdi-------------;2dffffffffffffaedf&DDDDDDD",
"DDDDDD *aew611,waasfgdgd9;---------;80aadfffffgfffffaedf;DDDDDDD",
"DDDDD O2aew2>2weasffdgdfd08,--;628aeaeeeedffffffffffeedg:DDDDDDD",
"DDDDD.;aee0>;weesddgdgdu800a080aeeeeeeeeeedfffffffffeefg:DDDDDDD",
"DDDD >eaw6-20aedffgddsa088aaaaaaeeeeeeeeeesfffffffffeedf&DDDDDDD",
"DDDDX,a8;*>aaaddfdgdaa0a00a000a0eeeeeeeeeesffffffffdaepg:XDDDDDD",
"DDD.1a6--6waedfrsdgs0aaaaaaaaaaaeeeeeeeeaadfffffffffeedfg: DDDDD",
"DDD.66;60aeaddia0dgds0a0a0a0asdrwaewaaeadfffffffffffaaddg,.DDDDD",
"DDD ,660a0udggfdgdffdraaaaaa0sdaeeeeasddffffffffffffaasdgg3 DDDD",
"DDD 66,70sdgdfffgddggd0a0a0aaaaawwaeerdgffffffffffffa0uddgi:DDDD",
"DDD 607,80uiffgfdggdgdraaaaaa0a0aaeeadffffffffffffffs0aaddg9.DDD",
"DDD.,e0e06-,88,idddddfda00aaaaaaeeeaddgdffffffffffffi00sdfgi3 DD",
"DDD 6aaa0,;-----:;;::0a0aa0a0a0aeeesdgfgffffffffffffdradfffd4.DD",
"DDD.,aa00,;----@---:00a00aaa0aa0eeidffffffffffffffffga0dgfg9XDDD",
"DDD 6aaa066086>6,-,80aaaaaa0aaaaeeifffffddffffffffffdaaifff9 DDD",
"DDD.2aew76=>666808866,88680aaassergdffffdidgfffffffffiewwp9%DDDD",
"DDD 2a82666===>,,-888808,60aa0aaerggffffdggdfffffffffg&OO@ODDDDD",
"DDD.6aw770807aa088888000a00aaaaaeddfffffffffgdggfdfffg$DDDDDDDDD",
"DDD.=7ew0a0aa00a0sfddsaa0aaa0a0aidfffffdfdfggddiriffff&DDDDDDDDD",
"DDD.*177a0aaa0a0aasgfs0aa0a00aaasfffffggff9980aaefffffp$DDDDDDDD",
"DDDD.=27aaa0aaaa00sgfff0a0aaaa00sfdgdpiu3:--80a0rffffff- DDDDDDD",
"DDDDD#=1800a0a0aaa0dgfs0aaaaaa0aidp89,-;---8aaaarffffffq#DDDDDDD",
"DDDDDDDo@660aaaaa0aa0aaa0aa00006>:>-------800a0aerfffffg;DDDDDDD",
"DDDDDDDDD.o*>78wwaaaawaa0776;-----------=7eeeeeasdfffffq#DDDDDDD",
"DDDDDDDDDDDD.->1221278,;;--------------;0w720eeiffffffi$.DDDDDDD",
"DDDDDDDDDDDD.**------------------------0a0260eesffffff$.DDDDDDDD",
"DDDDDDDDDDDD.*------------------------*6wewwaw22urufy;DDDDDDDDDD",
"DDDDDDDDDDDX------------------------**60eeea8:::<<<2O.DDDDDDDDDD",
"DDDDDDDDDDDO80>-------------------,000ewee0=1igffffqqq$@@@ODDDDD",
"DDDDDDDDDDDDO0e66;--------------;8aaeeeewa$.3fdserereeewww;.DDDD",
"DDDDDDDDDDDD.88ea06;;-*--*---$-60a0aeeaaaa6@O6eww2;;;;;;>$@DDDDD",
"DDDDDDDDDDDDDoo;>1,>2722,222228aaaaeew,,1,$..$-#@@OX..X...DDDDDD",
"DDDDDDDDDDDDDDDDDDDD@$$$**$$$*$$$$$$@$DDDDDDDDDDDDDDDDDDDDDDDDDD",
"DDDDDDDDDDDDDDDDDDDDDDDDDDDDDDDDDDDDDDDDDDDDDDDDDDDDDDDDDDDDDDDD",
"DDDDDDDDDDDDDDDDDDDDDDDDDDDDDDDDOOOODDDDDDDDDDDDDDDDDDDDDDDDDDDD",
"DDDDDDDDDDDDDDDDDDDDDDDDDDDDD.#3876-XDDDDDDDDDDDDDDDDDDDDDDDDDDD",
"DDDDDDDDDDDDDDDDDDDDDDDDDDDDD.#-$@OODDDDDDDDDDDDDDDDDDDDDDDDDDDD",
"DDDDDDDDDDDDDDDDDDDDDDDDDDDDDDDDDDDDDDDDDDDDDDDDDDDDDDDDDDDDDDDD",
"DDDDDDDcMBBCCCCBBMccDDDDDDDDDDDDDDDDDDDcNVASZCVNccDDDDDDDDDDDDDD"
};
