/* XPM */
static char *result[] = {
/* columns rows colors chars-per-pixel */
"64 64 215 2 ",
"   c #74C857",
".  c #75C856",
"X  c #67BF64",
"o  c #53B277",
"O  c #5EB96C",
"+  c #70C55B",
"@  c #61BB69",
"#  c #4FAF7B",
"$  c #4DAE7D",
"%  c #4EAE7C",
"&  c #58B572",
"*  c #6DC35E",
"=  c #67BF63",
"-  c #5DB96D",
";  c #72C659",
":  c #75C956",
">  c #5FBA6C",
",  c #59B672",
"<  c #6EC45D",
"1  c #76CA55",
"2  c #73C758",
"3  c #61BB6A",
"4  c #52B178",
"5  c #63BC68",
"6  c #6FC45C",
"7  c #59B671",
"8  c #6BC260",
"9  c #5EB96D",
"0  c #65BE66",
"q  c #71C65A",
"w  c #5BB770",
"e  c #5AB670",
"r  c #6FC55C",
"t  c #6BC25F",
"y  c #72C759",
"u  c #72C758",
"i  c #66BE65",
"p  c #5AB770",
"a  c #76C955",
"s  c #73C858",
"d  c #5DB86D",
"f  c #68C062",
"g  c #62BC69",
"h  c #6EC45C",
"j  c #75C955",
"k  c #72C65A",
"l  c #62B76A",
"z  c #5AB072",
"x  c #6EC35D",
"c  c #58AF75",
"v  c #4AA382",
"b  c #58B373",
"n  c #4BA980",
"m  c #70C65A",
"M  c #58B573",
"N  c #6FC55B",
"B  c #6DC45E",
"V  c #65BA66",
"C  c #6ABF61",
"Z  c #74C856",
"A  c #6BC060",
"S  c #66BB66",
"D  c #67BB65",
"F  c #68BC64",
"G  c #50A67D",
"H  c #5BB171",
"J  c #6FC35C",
"K  c #71C55A",
"L  c #5FB56D",
"P  c #51A77C",
"I  c #50A77C",
"U  c #62B869",
"Y  c #59AF73",
"T  c #4FA97D",
"R  c #4BA681",
"E  c #74C758",
"W  c #6CC25F",
"Q  c #59B571",
"!  c #77CB54",
"~  c #71C75A",
"^  c #5BB86F",
"/  c #4EAF7C",
"(  c #70C45B",
")  c #6BC160",
"_  c #59B572",
"`  c #5AAF73",
"'  c #66BA66",
"]  c #59B073",
"[  c #52AF79",
"{  c #4BA382",
"}  c #55AD77",
"|  c #68BD63",
" . c #6BBF61",
".. c #4CA680",
"X. c #4DAB7E",
"o. c #4FAA7C",
"O. c #54AB78",
"+. c #65BA67",
"@. c #56AC77",
"#. c #4DAB7D",
"$. c #4EAF7B",
"%. c #50AD7B",
"&. c #53AB79",
"*. c #61B66B",
"=. c #65B967",
"-. c #55AC77",
";. c #50AC7B",
":. c #57B473",
">. c #68BE64",
",. c #5BB76F",
"<. c #63BD67",
"1. c #5AB671",
"2. c #50B07A",
"3. c #69C162",
"4. c #64BD67",
"5. c #54B376",
"6. c #69C161",
"7. c #64B968",
"8. c #69BE63",
"9. c #64BA67",
"0. c #4FA67E",
"q. c #5FB46D",
"w. c #50A77D",
"e. c #4FA67D",
"r. c #5CB170",
"t. c #63B968",
"y. c #71C55B",
"u. c #50AA7C",
"i. c #73C759",
"p. c #6BC161",
"a. c #58AE74",
"s. c #61B76B",
"d. c #51AE79",
"f. c #67BC65",
"g. c #6ABE62",
"h. c #58AF74",
"j. c #4FAA7D",
"k. c #55AC78",
"l. c #4EAC7D",
"z. c #54AC78",
"x. c #56AD76",
"c. c #58B473",
"v. c #69BF63",
"b. c #72C55A",
"n. c #5BB670",
"m. c #65BE65",
"M. c #5CB86E",
"N. c #60B56C",
"B. c #66BB65",
"V. c #69BD63",
"C. c #5EB56E",
"Z. c #53B078",
"A. c #4FA57E",
"S. c #5BB072",
"D. c #6FC35D",
"F. c #5EB46E",
"G. c #50A87C",
"H. c #62B86A",
"J. c #63BB68",
"K. c #64BE66",
"L. c #60BA6B",
"P. c #56B474",
"I. c #5CB270",
"U. c #5BB071",
"Y. c #6DC15F",
"T. c #74C757",
"R. c #63B869",
"E. c #77CA54",
"W. c #6EC25D",
"Q. c #6EC25E",
"!. c #66BC65",
"~. c #51A97B",
"^. c #5AB172",
"/. c #5DB46E",
"(. c #4DA580",
"). c #4BA481",
"_. c #68BF63",
"`. c #63BA68",
"'. c #6CC15F",
"]. c #6DC25E",
"[. c #5BB271",
"{. c #4CA480",
"}. c #69BF62",
"|. c #5DB46F",
" X c #6AC062",
".X c #56AE76",
"XX c #59B372",
"oX c #57AD75",
"OX c #52AE79",
"+X c #54B177",
"@X c #4DAA7E",
"#X c #50AE7A",
"$X c #56B375",
"%X c #4FAC7C",
"&X c #67BC64",
"*X c #74C858",
"=X c #60BB6A",
"-X c #51AE7A",
";X c #58B472",
":X c #64BC67",
">X c #57AD76",
",X c #56AC76",
"<X c #70C45C",
"1X c #4CAA7F",
"2X c #4AA183",
"3X c #489F85",
"4X c #6CC05F",
"5X c #4CA880",
"6X c #68C063",
"7X c #4DAD7D",
"8X c #66BF65",
"9X c #59AE74",
"0X c #49A084",
"qX c #48A085",
"wX c white",
/* pixels */
"                    . . X o O + @ # $ % $ & * = o - ; :                 : ; > # $ % $ , < 1 2 3 4 5   :                 : 6 7 $ ",
"                        8 9 0 q = w 7 e 7 3 r t 9 0 y :                 : u i p 7 e 7 @ + a s X d f   .                 : + g 7 ",
"                        y r q s q 6 h 6 h + 2 y r q                         q 6 6 6 6 + 2     q r ;                       2 + 6 ",
"                          : :   . : : : : :     : :                         : : : : : :       . : .                         : : ",
"                                                                                                                                ",
"                                                                                                                            : j ",
"                                                                                                                          s k + ",
"                                                                                                                        : + l z ",
"                                                                                                                        j x c v ",
"                                                                                                                        : < b n ",
":                                                                                                                       : m 3 M ",
":                                                                                                                       :   N B ",
"V C ; .                                                                                                             Z 2 A S D F ",
"G H J :                                                                                                             : K L P G I ",
"z U + :                                                                                                             : ; S Y T R ",
"K ;                                                                                                                     E W Q % ",
"! 1                                                                                                                     ! ~ ^ / ",
"( K s                                                                                                                   2 ) _ % ",
"` l k 1                                                                                                             1 2 ' ] [ # ",
"{ } | K s                                                                                                           ;  .Y ..X.# ",
"X.o.O.l ; :                                                                                                     : 2 +.@.o.#.% # ",
"$.%.&.*.k :                                                                                                     : 2 =.-.;.# # # ",
"% :.>.( 2                                                                                                           K C e # / # ",
",.<.y a                                                                                                             a s X e 4 # ",
"+ q s                                                                                                                   2 8 , % ",
": :                                                                                                                     1 + 1.$ ",
"                                                                                                                        : r ,.2.",
"                                                                                                                        . ; 3.4.",
"                                                                                                                          s q r ",
"                                                                                                                        : q <.,.",
"                                                                                                                        : + O 5.",
"                                                                                                                          u * 6.",
": Z                                                                                                                       : : a ",
"                                                                                                                            : : ",
"7.8.; :                                                                                                             : 2  .9.+.+.",
"0.H J :                                                                                                             : K q.w.0.e.",
"r.t.y.:                                                                                                             : ; D z u.R ",
"; i.                                                                                                                      * Q % ",
"! 1                                                                                                                     ! ~ ^ / ",
"J y.2                                                                                                                   ; p._ % ",
"a.s.K 1                                                                                                             1 2 =.c d.# ",
"v -.f.( 2                                                                                                           K g.h...X.# ",
"X.j.&.s.k :                                                                                                     : 2 =.k.o.l.% # ",
"/ %.z.l ; :                                                                                                     : 2 +.x.%.# # # ",
"% c.v.K s                                                                                                           b.A n.# / # ",
"- m.y a                                                                                                             a   f M.o # ",
"r q s                                                                                                                   y 8 _ % ",
"N.B.K :                                                                                                             : i.V.C.Z.$ ",
"A.S.D.:                                                                                                             : K F.G.%.4 ",
"*.f.K :                                                                                                             : i.8.H.J.K.",
"                                                                                                                                ",
": :                                                                                                                     . : a a ",
"                                                                                                                          2 h W ",
"                                                                                                                        : + L.P.",
"                                                                                                                        : + 3 & ",
"                                                                                                                          2 + < ",
"                                                                                                                            : : ",
"                                                                                                                                ",
"                        Z : :   : : j : j :     : :                         : : j : j :       : : :                         : j ",
"                        2 K ;   y K K K K ; 2 2 K ;                         ; K K K K ; s     y K i.                        ; K ",
": : j :       : j a j : A q.B.; V.I.U.H S.l y.Y.q.S   a       : :     : 1 T.f.r.U.H U.R.K E.. | F.V.  a a a :       . : 1 b.R.U.",
"6 < x +     s + W.Q.( 2 !.~.^.) /.(.{ ).{ } _.`.G.] '.;     2 + + 2 y r + ].[.{.{ ).{ } }.q < |.G.H.2 K W.W.( 2     q r +  X.X{ ",
"p XXh.R.; 1 k R.oX@.q.D._.OX[ _ +XX.@X@X@X#Xc.$X%Xu.h.&X*Xa r =X3 N W d 1.7 Z.@X@X@X@X-X;X,.1.Z.%.:X( l >X,XN.<Xa 2 = ,.e & -X@X",
"/ 1X{ U.K ! + z 2X3XO.4X6.5.$ % # # # # # # / # # 5X{.*.2 1 * :.M * 6X4 7X% # # # # # # / % % $ 4 8Xx 9X0XqXx.Q.E.2 @ # $ / # # "
};
