/* XPM */
static char *result[] = {
/* columns rows colors chars-per-pixel */
"64 64 211 2 ",
"   c #020101",
".  c #0D0A0B",
"X  c #090707",
"o  c #130F11",
"O  c #141213",
"+  c #1B1618",
"@  c #100E0E",
"#  c #221A1D",
"$  c #271E21",
"%  c #292A2A",
"&  c #2A2326",
"*  c #32262A",
"=  c #36292E",
"-  c #392C31",
";  c #3F3035",
":  c #4C1C0F",
">  c #501E0F",
",  c #4E1E11",
"<  c #531E10",
"1  c #581F12",
"2  c #562012",
"3  c #5C2112",
"4  c #5A281C",
"5  c #4F2115",
"6  c #642314",
"7  c #6A2416",
"8  c #67291D",
"9  c #712716",
"0  c #742618",
"q  c #7A271A",
"w  c #7D2A19",
"e  c #732919",
"r  c #522A22",
"t  c #45363C",
"y  c #5A3939",
"u  c #58322F",
"i  c #642E24",
"p  c #6B3127",
"a  c #693B37",
"s  c #723A33",
"d  c #7B3D39",
"f  c #7B3022",
"g  c #79413E",
"h  c #6E413F",
"j  c #4D3A41",
"k  c #553E42",
"l  c #593E43",
"z  c #663F41",
"x  c #5B4246",
"c  c #5E4449",
"v  c #544349",
"b  c #5E4851",
"n  c #545454",
"m  c #4E504F",
"M  c #634245",
"N  c #6C4243",
"B  c #62464B",
"V  c #64494E",
"C  c #6B494D",
"Z  c #734241",
"A  c #7A4748",
"S  c #664C52",
"D  c #6B4D54",
"F  c #674F58",
"G  c #794F53",
"H  c #6D5156",
"J  c #6C535C",
"K  c #735057",
"L  c #74535A",
"P  c #79555D",
"I  c #78585F",
"U  c #765961",
"Y  c #7C5B63",
"T  c #7C5F6A",
"R  c #70676B",
"E  c #6E6A6C",
"W  c #832D1A",
"Q  c #8B2D1D",
"!  c #922D1F",
"~  c #8F311C",
"^  c #96331E",
"/  c #A0351F",
"(  c #952E21",
")  c #992F22",
"_  c #853529",
"`  c #9D3222",
"'  c #9C392C",
"]  c #893A35",
"[  c #943930",
"{  c #983E30",
"}  c #A43324",
"|  c #AE3427",
" . c #AD3923",
".. c #A3362B",
"X. c #A43C2D",
"o. c #AB3727",
"O. c #B13527",
"+. c #B33C24",
"@. c #BC3F26",
"#. c #B13528",
"$. c #B63828",
"%. c #BD3B28",
"&. c #C23E29",
"*. c #C23F26",
"=. c #86423D",
"-. c #92463E",
";. c #A84333",
":. c #B24330",
">. c #C64129",
",. c #CD442A",
"<. c #C14027",
"1. c #D0452A",
"2. c #875355",
"3. c #945859",
"4. c #835D65",
"5. c #865F68",
"6. c #85626B",
"7. c #8B626B",
"8. c #9E6367",
"9. c #8E6670",
"0. c #8C6A74",
"q. c #886874",
"w. c #926771",
"e. c #946A74",
"r. c #996C76",
"t. c #946F7A",
"y. c #9D6E79",
"u. c #96727D",
"i. c #9A747E",
"p. c #A46D75",
"a. c #A1727E",
"s. c #A9717A",
"d. c #B5777F",
"f. c #9C7682",
"g. c #9B7A86",
"h. c #A57581",
"j. c #A27A85",
"k. c #AC7A86",
"l. c #A57E8A",
"z. c #AB7F8B",
"x. c #B47E8C",
"c. c #BC7D87",
"v. c #FE7CCC",
"b. c #9D999B",
"n. c #8A8B8B",
"m. c #AA818E",
"M. c #A7808F",
"N. c #B7808E",
"B. c #AD8391",
"V. c #A18D94",
"C. c #BC8493",
"Z. c #BA8D9D",
"A. c #B48997",
"S. c #B9919F",
"D. c #BE91A1",
"F. c #B49BA4",
"G. c #B8B2B5",
"H. c #B5AEB1",
"J. c #C58A9A",
"K. c #CA8D9D",
"L. c #C78795",
"P. c #C4838F",
"I. c #C495A5",
"U. c #CE91A1",
"Y. c #CB9BAC",
"T. c #C799AA",
"R. c #D393A4",
"E. c #DD9AAC",
"W. c #D49BAB",
"Q. c #CD97A8",
"!. c #E19CAE",
"~. c #E39EB1",
"^. c #D4A2B4",
"/. c #DBA4B7",
"(. c #DAA6B9",
"). c #DDA9BC",
"_. c #C8AFB9",
"`. c #E5A0B4",
"'. c #E8A3B6",
"]. c #E9A5B9",
"[. c #E2ABBE",
"{. c #ECA9BD",
"}. c #E7A6B9",
"|. c #FE83CD",
" X c #FE8BCF",
".X c #FE94D1",
"XX c #FE9AD1",
"oX c #FD8ED0",
"OX c #DBB8C5",
"+X c #E3AEC1",
"@X c #EEAEC2",
"#X c #E5B1C4",
"$X c #E9B1C5",
"%X c #EDB5CA",
"&X c #E7B8CA",
"*X c #F1B1C5",
"=X c #F3B5CA",
"-X c #F4B9CE",
";X c #FDA5D3",
":X c #FEACD5",
">X c #FDB4D6",
",X c #F6BCD1",
"<X c #FABDD4",
"1X c #FDBFD8",
"2X c #F0AEC2",
"3X c #FBC1D6",
"4X c #FDC2D8",
"5X c #FFC8DF",
"6X c #FFCAE0",
"7X c #D2CACE",
"8X c None",
/* pixels */
"8X8X8X8X8X8X8X8X8X8X8X8X8X8X8X8X8X8X8X8X8X8X8X8X8X8X8Xx c c c c x c c c c c c 8X8X8X8X8X8X8X8X8X8X8X8X8X8X8X8X8X8X8X8X8X8X8X8X8X",
"8X8X8X8X8X8X8X8X8X8X8X8X8X8X8X8X8X8X8X8X8X8X8X8X8Xx x c S H I I I I I H S c c k 8X8X8X8X8X8X8X8X8X8X8X8X8X8X8X8X8X8X8X8X8X8X8X8X",
"8X8X8X8X8X8X8X8X8X8X8X8X8X8X8X8X8X8X8X8X8X8Xc c V V H I 7.i.g.m.m.m.M.u.0.I H S V V c 8X8X8X8X8X8X8X8X8X8X8X8X8X8X8X8X8X8X8X8X8X",
"8X8X8X8X8X8X8X8X8X8X8X8X8X8X8X8X8X8X8X8Xx x V L 0.m.S.Y.^.).[.[.[.#X).(.^.^.S.m.e.Y B c x 8X8X8X8X8X8X8X8X8X8X8X8X8X8X8X8X8X8X8X",
"8X8X8X8X8X8X8X8X8X8X8X8X8X8X8X8X8X8X8Xc S Y 0.l.I.).-X3X5X4X4X4X4X4X5X4X5X4X3X).Y.B.e.Y D c x 8X8X8X8X8X8X8X8X8X8X8X8X8X8X8X8X8X",
"8X8X8X8X8X8X8X8X8X8X8X8X8X8X8X8X8Xx c H 6.B.(.-X-X3X4X4X4X4X3X4X4X4X3X4X3X4X3X3X,X-XOXA.0.D c c 8X8X8X8X8X8X8X8X8X8X8X8X8X8X8X8X",
"8X8X8X8X8X8X8X8X8X8X8X8X8X8X8X8Xx c I j.I.[.,X4X4X4X4X4X4X4X4X4X4X4X4X4X4X4X3X4X4X4X3X#XY.B.4.B c 8X8X8X8X8X8X8X8X8X8X8X8X8X8X8X",
"8X8X8X8X8X8X8X8X8X8X8X8X8X8X8Xc S Y j.(.3X4X4X4X4X4X4X4X4X4X4X4X4X4X3X4X4X4X3X4X4X4X4X4X<X#XC.R S c 8X8X8X8X8X8X8X8X8X8X8X8X8X8X",
"8X8X8X8X8X8X8X8X8X8X8X8X8X8Xl V 6.A.$X<X4X4X4X4X4X4X4X4X4X4X4X4X4X4X4X4X4X3X4X4X4X3X4X4X4X<X$XT.7.S c 8X8X8X8X8X8X8X8X8X8X8X8X8X",
"8X8X8X8X8X8X8X8X8X8X8X8X8Xc V T A.+X4X4X4X4X4X3X4X4X4X4X4X4X4X5X4X4X4X4X4X4X4X4X3X3X3X4X4X4X4X%XD.0.V c 8X8X8X8X8X8X8X8X8X8X8X8X",
"8X8X8X8X8X8X8X8X8X8X8X8Xx B Y z.$X4X4X4X4X4X4X4X4X4X4X4X4X4X,X$X).#X3X4X4X4X4X,X).(.(.-X4X4X4X<X3XS.Y V c 8X8X8X8X8X8X8X8X8X8X8X",
"8X8X8X8X8X8X8X8X8X8X8Xc B H l.).<X4X4X4X4X3X4X4X4X3X4X4X4X<XD.R b u.%X3X3X4X5X).6.v F T.4X4X4X4X3X#XZ.Y x c 8X8X8X8X8X8X8X8X8X8X",
"8X8X8X8X8X8X8X8X8X8X8Xx H e.^.3X4X4X4X3X3X4X4X4X4X4X3X4X4X,XM.; @ v T.-X5X3X3XT.v O + g.&X3X4X4X4X3X[.f.H c 8X8X8X8X8X8X8X8X8X8X",
"8X8X8X8X8X8X8X8X8X8Xx x Y I.&X3X4X4X4X4X4X4X4X3X4X4X4X4X,X#XV.m @ * 0.).5X3X&XF.E % @ F I.,X5X3X4X4X3XI.0.V x 8X8X8X8X8X8X8X8X8X",
"8X8X8X8X8X8X8X8X8X8Xc H i.#X3X3X3X4X4X4X4X4X4X4X4X4X4X4X<XOXG.n.# + S Y.5X3XOXH.b.m . v l.-X6X3X4X4X3X[.A.D x 8X8X8X8X8X8X8X8X8X",
"8X8X8X8X8X8X8X8X8X8XV 6.Z.-X4X4X4X4X4X3X4X4X4X4X4X4X4X4X7X_.7XG.% X t I.5X3XOXG.G.E . = t.&X5X1X4X4X4X4X^.6.V c 8X8X8X8X8X8X8X8X",
"8X8X8X8X8X8X8X8X8Xl S l.).<X5X4X3X4X4X4X4X4X4X4X4X4X4X4X#XF._.b.&   - D.5X1X_.b.b.n . & 6.%X5X4X4X4X4X4X[.m.I c 8X8X8X8X8X8X8X8X",
"8X8X8X8X8X8X8X8X8Xy S Z.-X<X4X4X4X4X4X3X4X3X4X4X4X3X4X4X+Xg.E n O   * S.6X1XA.R m % X $ T $X5X3X4X4X3X5X%XT.9.x 8X8X8X8X8X8X8X8X",
"8X8X8X8X8X8X8X8Xc l D I.3X3X3X4X4X4X4X4X4X4X3X4X4X4X3X5X(.q.= X     * S.6X,Xl.t @     $ T %X5X1X4X4X4X4X3X[.u.c x 8X8X8X8X8X8X8X",
"8X8X8X8X8X8X8X8Xx S 7.^.4X3X4X4X4X3X4X4X3X4X4X4X4X4X4X4X(.q.%     . = D.6X3XM.j .   X * q.%X5X3X3X4X4X4X3X-Xm.S c 8X8X8X8X8X8X8X",
"8X8X8X8X8X8X8Xx c 4.A.$X4X4X4X4X4X4X4X4X4X4X4X3X4X4X4X5X+Xg.;     @ j I.6X<XA.b o   X ; f.%X5X1X4X4X4X4X4X3XA.I V 8X8X8X8X8X8X8X",
"8X8X8X8X8X8Xx B H l.&X1X4X4X3X4X4X3X4X4X4X4X4X4X3X4X4X4X%XZ.j     # F Y.6X<XY.T +   . v B.,X5X<X4X4X4X3X4X3XI.6.S c 8X8X8X8X8X8X",
"8X8X8X8X8X8Xk S f.^.3X4X4X4X4X4X4X4X3X4X4X4X4X4X4X4X4X4X<X(.F     = u.+X5X<X#Xj.$   . T ^.,X5X4X4X4X4X4X4X3XY.t.H x 8X8X8X8X8X8X",
"8X8X8X8X8Xx B 5.Y.-X4X4X4X4X3X4X4X3X4X4X4X3X1X4X1X1X1X3X3X,X0.& O b I.&X5X3X3XY.j + = B.%X<X1X1X3X4X4X4X4X4X^.i.V x 8X8X8X8X8X8X",
"8X8X8X8X8Xc Y B.#X4X4X4X4X3X4X4X4X4X3X4X3X3X1X>X>X:X>X>X4X<XY.u.U l.%X4X4X4X4X#XB.0.f.^.1X>X:X>X3X4X4X4X4X3X^.j.H x c 8X8X8X8X8X",
"8X8X8X8Xc S h.(.,X4X4X4X4X4X4X4X4X4X4X4X1X>X;XXX.X.XXXXX:X>X%X(.I.(.4X5X4X4X4X<X+X(.^.=X:XXX.XXX:X>X4X4X4X3X^.j.S x c M 8X8X8X8X",
"8X8X8Xc V 4.I.3X4X4X4X3X4X4X4X4X4X4X4X4X>XXX Xv.v.v.v.v..X:X1X3X1X1X3X3X4X4X4X4X3X3X1X>XXXv.v.|..X:X3X4X4X3X^.f.S x V V 8X8X8X8X",
"8X8X8Xc K k./.3X4X4X4X4X3X4X4X4X4X4X4X3X1X;XoX|.v.v.v.|.XX>X4X4X5X3X3X4X4X4X4X4X4X4X4X>X;XoX XoX;X>X3X4X4X3XY.u.H H 4.S c 8X8X8X",
"8X8XD V 5.U.{.<X3X4X4X3X4X4X3X3X3X3X3X3X3X>X;XXX.X.X.XXX:X3X4X4X4X3X4X4X4X4X4X4X4X4X4X3X>X;X;X;X>X3X4X4X5X1XI.9.H 5.h.L c 8X8X8X",
"8X8XC P a.E.2X>X1X4X4X3X4X4X3X<X-X-X<X1X4X4X1X1X1X1X1X3X1X4X3X4X4X4X4X4X3X3X3X4X4X4X3X4X3X1X1X3X4X3X4X4X4X<XZ.6.P a.J.4.M P 8X8X",
"8X8XV 5.x.~.{.*X<X3X4X3X3X<X*X{.{.2X*X<X3X3X4X4X4X4X4X4X4X3X4X4X4X4X5X3X1X%X@X$X<X3X4X3X4X4X4X4X4X4X3X,X=X@Xz.U 4.x.R.w.D L 8X8X",
"8Xx V e.J.~.~.@X=X-X<X<X-X*X{.`.'.~.'.=X1X3X4X4X3X4X4X4X4X4X4X4X4X4X3X4X,X@X}./.-X4X4X4X4X4X4X3X4X1X,X2X{.~.a.P w.L.E.r.K K 8X8X",
"8Xl V r.U.~.'.{.].{.{.{.].].`.`.`.~.'.*X3X4X4X3X4X4X4X4X4X4X3X4X3X4X3X4X<X%X[.}.,X3X4X4X3X4X4X4X3X-X2X].`.~.a.Y k.R.E.r.H H 8X8X",
"8Xl V r.K.~.~.~.~.`.`.`.`.~.~.R.C.J.E.{.=X3X4X3X4X4X3X4X4X4X4X4X4X4X4X4X<X,X=X=X3X4X4X4X4X4X3X3X-X*X].'.`.E.r.Y C.!.E.w.D K 8X8X",
"8X8XV 9.P.!.~.~.~.`.`.`.`.~.R.N.6.r.R.'.*X3X3X3X4X3X4X4X3X4X4X4X4X3X4X4X4X4X3X3X4X3X4X3X4X3X3X<X@X].`.`.E.U.w.4.K.~.R.5.B D 8X8X",
"8X8Xz K a.R.~.~.`.`.`.`.`.!.N.6.D w.W.`.{.{.=X3X4X4X3X4X4X4X4X3X4X4X4X4X4X3X3X5X4X4X4X3X4X3X-X{.'.`.~.'.R.h.w.a.R.R.a.L l 8X8X8X",
"8X8XV V Y k.J.U.E.!.`.`.!.J.w.D K p.R.!.'.'.{.=X,X3X3X3X3X4X4X4X4X4X3X4X3X4X4X4X4X4X4X3X<X-X@X'.`.~.~.~.J.5.7.s.x.a.P B c 8X8X8X",
"8X8X8Xc B K 5.h.C.U.!.!.J.w.K C 7.s.c.R.!.`.'.].*X=X3X3X3X3X4X4X4X4X4X4X4X4X3X4X4X3X1X<X=X{.'.`.~.'.~.R.k.L 4.5.G S B c 8X8X8X8X",
"8X8X8X8Xc B D U 5.w.r.r.6.H B M h g =.2.8.K.!.`.].{.*X*X-X<X<X<X1X1X3X4X4X3X3X<X<X-X=X$X{.`.`.~.~.'.!.x.5.V S H B y y 8X8X8X8X8X",
"8X8X8X8X8XV z y y l c y x h g g 8 3 3 3 s 8.P.E.`.`.`.{.{.*X*X=X=X=X,X-X-X,X-X=X*X2X{.`.`.`.`.~.'.~.K.7.C N Z z a a r 8X8X8X8X8X",
"8X8X8X8X8X8Xr r r u a a s _ '  ./ / ~ 9 6 i 2.d.E.~.~.'.'.'.].].].].].{.].].].].'.].`.`.~.`.`.`.'.K.e.2.=.;.:.X.f 4 > : 8X8X8X8X",
"8X8X8X8X8X8X: 1 8 _ [ -.;. .:.<.>.>.+./ W 6 p 2.c.R.`.`.~.~.~.~.`.!.`.!.~.~.~.`.~.`.`.`.`.`.'.!.J.y.G -.;.:.,.<./ w 3 > : 8X8X8X",
"8X8X8X8X8X< < 7 ^ +.>.,.,.,.,.,.1.1.>.,.+.Q 7 8 3.c.!.~.~.`.`.~.~.`.`.`.`.`.`.`.`.`.`.~.`.~.E.K.w.G =.:.,.,.,.,.,. .w 3 > 8X8X8X",
"8X8X8X8X: 2 e ` @.>.1.1.,.,.,.,.1.,.>.:.O.} ~ w p 3.L.E.'.~.~.'.`.`.`.`.`.~.`.`.`.`.`.'.~.R.j.5.G =.X.>.1.1.,.1.1.>. .w 2 > 8X8X",
"8X8X8X: 2 9 / >.,.,.,.,.1.,.,.1.,.&.%.O.| O.| ! 7 s 8.K.`.`.`.`.`.`.`.`.~.`.`.'.`.`.E.U.C.a.2.N ] X.%.>.,.,.1.,.,.1.,.^ 9 > : 8X",
"8X8X> > 9 / <.,.1.,.,.1.,.,.,.1.&.%.O.| | | O.} ! 0 s d.!.~.~.`.`.~.`.`.`.`.`.`.~.E.K.r.L D Z ] o.O.%.,.1.,.,.,.,.,.,.<.^ 3 : > ",
"8X8X< 7 ~ :.,.1.,.,.,.,.1.,.,.&.&.O.| | | | O.| } w i 3.L.~.].'.'.`.'.'.`.~.R.C.h.t.7.G g ] [ ..| $.%.>.,.,.,.,.,.,.1.,. .7 2 > ",
"8X: 1 W +.,.1.,.1.,.,.1.,.>.&.&.O.| | | | | | | #.( q d 8.K.R.R.R.R.U.U.K.J.k.w.K N h g [ ..o.o.| O.$.%.>.,.1.,.1.1.1.1.+.W 6 > ",
": > 6 } >.1.1.1.,.,.>.&.&.%.$.O.| | | | | | | | #.} ! i a 5.9.9.w.7.4.U P L K A z ] [ ....o.| | | | O.O.%.>.,.,.1.,.,.1.+.w 3 > ",
"> 2 9 +.1.>.>.&.&.&.%.%.%.$.O.O.| | | | | | | | | | } 7 4 M D K L D c y u a ] ] ' ..| #.#.O.O.O.| | | o.|  . .+.+.+.+. .~ 9 2 : ",
"> 3 w  .>.&.%.$.O.O.| | | | | | | | | | | | | | #.#.| 0 4 8X8X8X8X8X8Xr i Q ` ` ..} } } } } } } } } ` ) ^ Q W W W W W 9 6 > : 8X",
": 2 6 W } O.$.O.O.| #.| | | O.O.O.#.| #.#.#.#.#.#.#.} 0 2 8X8X8X8X8X8X5 1 3 6 7 7 7 7 7 7 7 7 7 7 7 7 7 6 3 3 3 2 6 6 1 > > 8X8X",
"8X> > 6 w ^ ) ) ) ` ) ) ) ) ) ) ( ) ) ) ) ) ) ( ( ( Q 7 < 8X8X8X8X8X8X8X, : : : : : : : : : : : : : : : : : : : : : : > > 8X8X8X",
"8X8X> 2 2 3 7 e q q q q q q q q 0 0 0 7 7 7 7 6 7 6 3 < , 8X8X8X8X8X8X8X8X8X8X8X8X8X8X8X8X8X8X8X8X8X8X8X8X8X8X8X8X8X8X8X8X8X8X8X",
"8X8X8X8X, < 2 6 6 7 7 7 7 6 6 6 6 6 3 3 3 3 3 1 1 < , , 8X8X8X8X8X8X8X8X8X8X8X8X8X8X8X8X8X8X8X8X8X8X8X8X8X8X8X8X8X8X8X8X8X8X8X8X",
"8X8X8X8X8X8X8X8X8X8X8X8X8X8X8X8X8X8X8X8X8X8X8X8X8X8X8X8X8X8X8X8X8X8X8X8X8X8X8X8X8X8X8X8X8X8X8X8X8X8X8X8X8X8X8X8X8X8X8X8X8X8X8X8X",
"8X8X8X8X8X8X8X8X8X8X8X8X8X8X8X8X8X8X8X8X8X8X8X8X8X8X8X8X8X8X8X8X8X8X8X8X8X8X8X8X8X8X8X8X8X8X8X8X8X8X8X8X8X8X8X8X8X8X8X8X8X8X8X8X",
"8X8X8X8X8X8X8X8X8X8X8X8X8X8X8X8X8X8X8X8X8X8X8X8X8X8X8X8X8X8X8X8X8X8X8X8X8X8X8X8X8X8X8X8X8X8X8X8X8X8X8X8X8X8X8X8X8X8X8X8X8X8X8X8X",
"8X8X8X8X8X8X8X8X8X8X8X8X8X8X8X8X8X8X8X8X8X8X8X8X8X8X8X8X8X8X8X8X8X8X8X8X8X8X8X8X8X8X8X8X8X8X8X8X8X8X8X8X8X8X8X8X8X8X8X8X8X8X8X8X",
"8X8X8X8X8X8X8X8X8X8X8X8X8X8X8X8X8X8X8X8X8X8X8X8X8X8X8X8X8X8X8X8X8X8X8X8X8X8X8X8X8X8X8X8X8X8X8X8X8X8X8X8X8X8X8X8X8X8X8X8X8X8X8X8X",
"8X8X8X8X8X8X8X8X8X8X8X8X8X8X8X8X8X8X8X8X8X8X8X8X8X8X8X8X8X8X8X8X8X8X8X8X8X8X8X8X8X8X8X8X8X8X8X8X8X8X8X8X8X8X8X8X8X8X8X8X8X8X8X8X",
"8X8X8X8X8X8X8X8X8X8X8X8X8X8X8X8X8X8X8X8X8X8X8X8X8X8X8X8X8X8X8X8X8X8X8X8X8X8X8X8X8X8X8X8X8X8X8X8X8X8X8X8X8X8X8X8X8X8X8X8X8X8X8X8X",
"8X8X8X8X8X8X8X8X8X8X8X8X8X8X8X8X8X8X8X8X8X8X8X8X8X8X8X8X8X8X8X8X8X8X8X8X8X8X8X8X8X8X8X8X8X8X8X8X8X8X8X8X8X8X8X8X8X8X8X8X8X8X8X8X",
"8X8X8X8X8X8X8X8X8X8X8X8X8X8X8X8X8X8X8X8X8X8X8X8X8X8X8X8X8X8X8X8X8X8X8X8X8X8X8X8X8X8X8X8X8X8X8X8X8X8X8X8X8X8X8X8X8X8X8X8X8X8X8X8X"
};
