/* XPM */
static char *result[] = {
/* columns rows colors chars-per-pixel */
"64 64 67 1 ",
"  c #56B73F",
". c #57B83F",
"X c #56B743",
"o c #57B841",
"O c #5BBA45",
"+ c #53B34B",
"@ c #5DBB49",
"# c #4FAF55",
"$ c #4DAC5C",
"% c #50AE5D",
"& c #4FB054",
"* c #51B153",
"= c #5AB753",
"- c #5EBA53",
"; c #56B35B",
": c #5BB65C",
"> c #5EB85D",
", c #63BE4B",
"< c #63BD53",
"1 c #63BD59",
"2 c #68BF5A",
"3 c #499F6F",
"4 c #498E7C",
"5 c #499676",
"6 c #499B72",
"7 c #49937A",
"8 c #4B9C7A",
"9 c #49A767",
"0 c #4AA965",
"q c #47A669",
"w c #49A56A",
"e c #49A868",
"r c #51AF61",
"t c #54B161",
"y c #4DA47B",
"u c #4FAD7B",
"i c #4FB07B",
"p c #50B27B",
"a c #66C04D",
"s c #69C24F",
"d c #67C050",
"f c #6CC452",
"g c #6AC159",
"h c #72C756",
"j c #74C857",
"k c #7ACB56",
"l c #71C658",
"z c #76C958",
"x c #7BCC59",
"c c #81CF5B",
"v c #85D15C",
"b c #8BD45E",
"n c #92D85F",
"m c #8FD760",
"M c #91D761",
"N c #94D961",
"B c #9BDD64",
"V c #A3E166",
"C c #A7E368",
"Z c #ABE569",
"A c #AFE86B",
"S c #B4EA6C",
"D c #BCEE6F",
"F c #BEF06F",
"G c #BFF070",
"H c #C0F170",
"J c None",
/* pixels */
"JJJJJJJJJJJJJJJJJJJJJeqqeqeqeeeewqeeeeee99qJJJJJJJJJJJJJJJJJJJJJ",
"JJJJJJJJJJJJJJJJJJJJJe900e0ee0ee9900eeee999JJJJJJJJJJJJJJJJJJJJJ",
"JJJJJJJJJJJJJJJJJJJJJ000000000000000$090000JJJJJJJJJJJJJJJJJJJJJ",
"JJJJJJJJJJJJJJJJJJJJ0$$$#$$$%%r;tr%%$$$$$$$0JJJJJJJJJJJJJJJJJJJJ",
"JJJJJJJJJJJJJJJewwq0$$&&&&&*+*;>::;*#&&&##$$0qqqeJJJJJJJJJJJJJJJ",
"JJJJJJJJJJJJJeeeeee0$&*++++++-<22<@=+++X+*#$0qeeeeeJJJJJJJJJJJJJ",
"JJJJJJJJJJJJJ0000000$*++.ooo@,hhhf,,Oo X@+*%0000000JJJJJJJJJJJJJ",
"JJJJJJJJJJJJ0$0$0ttt;=@OoO@,,hkcckf,OOOO@@=;ttr00$$$JJJJJJJJJJJJ",
"JJJJJJJJJJJ0$###;;::><aaaaaaskbnnbkfa,,aa,21>:;;##$$0JJJJJJJJJJJ",
"JJJJJJJJJe00$#++=-gggggfssasjbnVVnvkfsassfg2g1<=++#$0eeJJJJJJJJJ",
"JJJJJJJJJ00$$++O@afhjjhhhhjjvnCZZVncjjhhhhhhhda,@+*&$09JJJJJJJJJ",
"JJJJJJJJ00$$**@@ashhjjjjjkxvbBZSSZBncxxzjjjjjhsa@@+*$$$0JJJJJJJJ",
"JJJJJJJ0$$#;==,,sfjkjjjjkvbMBZSDDSZBnbcxzjjzjjhs,,@*;#$$0JJJJJJJ",
"JJJJJe0$#**+@<ssfjjjjjjjxbNVCSSDDSSZCNbczhhjjjhfss<@+**$$0eJJJJJ",
"JJJJJ99$#*+@,afhjjjjhhjxvnCADDFDHDDSZVMvxjhhjjjhhfd,=X+#$0eJJJJJ",
"JJJJq90$#+XO,shjzjjjzzxvbBASDHFDDHHDDZBbcxxzjjjjjhs,OX+#00eeJJJJ",
"JJJeqqe$#+XOafhkjjjzxvvMBZSDHHHDDGHHDSCBMvvxzjjjzhsaOO+#$9ewqJJJ",
"e0eqwe00#+XOasjjzjjzvbNVZSSDGGHDDGHHFSSZVBmxxjjjzhsaOX+#$0qeweee",
"eeeee00$#+XOashjjjjxvNCASDDGDHDHGDGDDDDSAVNvxjjjjhsaOX+#00qqeee0",
"9090000$&+XO,asjjjjzbNVSSDDDDFDDDFDDFDFSACMmxjhjhsaaOX+*$$00e0ee",
"09900$$*++XOOassffjxvMVCSSDDFGFFDFGFDDSACBMvxjffss,OOo++&$$0000e",
"e000$$&+++XOO@,afffzxvMNVZSDHGGDHHHHGSZVBMvxxffda,,@oo+++&&$000e",
"ee0$#*+XXXoooO@@adjjxxvvMVSSGHGGDHHGDAVMmxxxjjda@OOooXXX++*$$0ee",
"ee0$&++XXoXoooo@,ffjjzjxvNCSDFDFDDDDSCNvxzzzjffa@oooooXoXO+&$0eq",
"ee9$#+X.. XooOO@afjjjfjzxmBCASDDDDSACBnczjfjjffa@OOooX X X+*#009",
"ee0$++X.oXXoO@aadfhjjjjjxvmBVASDDSZVNMcxjjjjjjfgaa@OooX XX+*$099",
"e00$&+X  XoO@aafffjjjlljzxxmNVASDZVNbcxzjlhjjjfffsa@OoX  X+*$09q",
"q9$$*+XX XOOadfjzjjjjjzjzjzxvNCSSCNvxxjjjjjjjjzjhhd@@o XXX+*$09q",
"ee0$*+XXXXo@adfzzzjjjjjjjhjjxMBCZBnxjhhjjjjjjjzzjhsaOoo oo+*$$0q",
"ee0$&XX   oOafjzzzjjjzzjjhfjzmMBBMvxhhhlzjzjjjzzjhs,@oXXXo+*$0eq",
"qe0$*+XX  XO,ffzzzjjjjzzjljjjxvmvvxzzhjzzzjjjjzzjff,OoXXXX+*$00e",
"ee0$&+XXXXXO,ajjzzjjjjjjjjjjzzxxxxxzjjljjjjjjjzzzhs,OX  XX+*$0eq",
"q00$&+XXoXOOashjzjjjjhhhhhhjjjjzzjjjjhhhhhhhjjzjjhf,@oX XXX*$099",
"e00$&+X  XoO,dhjzxjjhfffffhjjjhhhjjjjhfffhfhjjzjzhf,OoX XX+*$00q",
"q00#++X.  OO,fjjzzzjhs,,adfjjjjhljzzjhfa,,fhjjzxjhd,Oo  .X+*$0eq",
"ee0$&+X. XoO,sfjzzjhf,,@,sfjlzjjjjzjhf,,@,,fhjzzjhf,OXX  X+*$0ee",
"qe0$&++XX XO,sfjjjhhd,OOOafhjzzjjjjhfd,@OO,,hjjjhfs,OoXXo++&$00e",
"ee0$#&+++Xoo@asffffs,OOOO,dhzzzjjhhfds@OoO,,,ffffs,,OoX+++&%$00e",
"0e00$#&*++XOO,,aa,,,,OOoOafjzzzjhhss,@OoXoO,,,,,,,,OOX+++&&$000q",
"e00000$#*+XoOOOOO,OOOooOO,sjzxzjhfa,@OOoXXOOO,,OOOOOXX++$$00000e",
"eeeew90$*+XXooooOoXoXXXo@ashjjjjfs,@XXXXXoooXoooooooXX+*$0eeewee",
"wwwwwe9$$+XXoXXXXXXX XXoo,ssfffffa@OXXX XXXoXXXXXXX.XX+&$0wqwww3",
"6663ww9$&+XX. X XXXX XXoO@,,saaa,,OoX XXXoXX X XX  oXX+#$9qw3366",
"55666w9$&+XX.oXoXXX XX.oOOOO@,@,@OOoX XX  X XXXXXX XXX+#$0w36555",
"45556w9$*+XX.XXXXXoXoXXXXooOOoOoooooXXOXXoooooooXX X ++#$0365544",
"44456w00$++XXXoXo XXXXX++XXXXXXXoooXXXX+X++XoXoooXXXX++#$0w35544",
"44456w90$&&++XXX..oX+++*+++XXXX XXo oX++*++XXo oXXX+**&$09w35444",
"44453e000$%&++Xo...o++###++XX .XXo XX++&&&*+X   oX++*%$$09335444",
"44556we0000%*+XXooXo+*$$$&++X XXXX XX+&$$$*+Xo oX++*$0000ew65774",
"47755wwwwe0$&*++XX++*$$0$&+oX..XooXX++%$0$$*++XXX++$$099eew65777",
"78856wwwwww0$&*++++**$00$%++o..XX+++&&$000$*+*++++&$09qw33368888",
"yyy88556www00$%&&%&&$000$&+Xo..o.++&%$00900$%&%&%%$00qw3665688y8",
"uyyy85553w9000$$$0$000900&++  XXX+&$000090000$0$$0$099w66588yyuu",
"pppy887563w900eewe990ee0$#++XoXX++$$0e0099009e0090999q365788yuuu",
"ppuyy88853333w3wwweeeee00%*++++++&$00eq99999eweww3w3w3368888uuup",
"ppuyyy88663355666wee0e000$##&***%$$0ee000990eww66656566688yyuuup",
"ipuuuyyy867575556ww9999000$$$$$$$000090e99099qw657775588yyuuuupu",
"uuiiuuuyy774774563ww099w9e9990990099q9ee9990ew6657744788yuuuuuui",
"uiuiiiuuy8887877633wwwwww33wwww3qwww3www3wwww3665848588yuuuiiuiu",
"uiiiiiuuyy88888y88666663333666666666336633636668888888yyuuuiiiup",
"JJJpiiuuuuyyyyyy88655555555555555555555555555888yyyyyyuuuiiiiJJJ",
"JJJJuppuuuuuuuuyy857745547455777745575777774778yyuuuuuuuuuiuJJJJ",
"JJJJpuuuuuuupuuuy844474444444474444444444444778yupppiiuipuuiJJJJ",
"JJJJuuppuuppppuuy874444444444444444444444444478yuuppiiiupupuJJJJ"
};
